PathFileType	4	(X/Y/Z)	Patient4_TMGait_0pt7_01_right_39.trc.trc
DataRate	CameraRate	NumFrames	NumMarkers	Units	OrigDataRate	OrigDataStartFrame	OrigNumFrames
86.419753086420	86.419753086420	4	33	mm	86.419753086420	89	       141
Frame#	Time	Sacral			L.Shoulder			Chest			R.Shoulder			Neck			R.ASIS			L.ASIS			R.Thigh.Superior			R.Thigh.Lateral			R.Thigh.Inferior			R.Patella			L.Thigh.Superior			L.Thigh.Lateral			L.Thigh.Inferior			L.Patella			L.Shank.Superior			L.Shank.Lateral			L.Shank.Inferior			R.Shank.Superior			R.Shank.Lateral			R.Shank.Inferior			R.Heel			R.Midfoot.Superior			R.Midfoot.Lateral			R.Toe			L.Heel			L.Midfoot.Lateral			L.Midfoot.Superior			L.Toe			L.Elbow			L.Wrist			R.Elbow			R.Wrist			
		X1	Y1	Z1	X2	Y2	Z2	X3	Y3	Z3	X4	Y4	Z4	X5	Y5	Z5	X6	Y6	Z6	X7	Y7	Z7	X8	Y8	Z8	X9	Y9	Z9	X10	Y10	Z10	X11	Y11	Z11	X12	Y12	Z12	X13	Y13	Z13	X14	Y14	Z14	X15	Y15	Z15	X16	Y16	Z16	X17	Y17	Z17	X18	Y18	Z18	X19	Y19	Z19	X20	Y20	Z20	X21	Y21	Z21	X22	Y22	Z22	X23	Y23	Z23	X24	Y24	Z24	X25	Y25	Z25	X26	Y26	Z26	X27	Y27	Z27	X28	Y28	Z28	X29	Y29	Z29	X30	Y30	Z30	X31	Y31	Z31	X32	Y32	Z32	X33	Y33	Z33	

89	45.598285714286	875.505931005179	1004.182597291670	453.779318968262	1024.787984521779	1431.576444101358	257.283733965350	1151.830850986883	1363.430895785387	401.989566737230	1092.723221050235	1437.942324188373	585.900618141613	1048.367884863461	1492.975839951251	410.893552159774	1109.895321080925	938.055662170418	546.546547588169	1073.701801295421	961.810916603593	275.940149644970	1147.156366378157	734.547734383331	535.251347616562	1071.154802647454	627.550802500174	607.372715401995	1151.828510912776	565.894407882529	534.712514062315	1140.909211940869	456.191672201421	558.218756091983	1145.727416191438	763.444891897266	306.395820889853	1070.219609786949	637.828076396439	250.259915499817	1164.943978930364	569.620229587775	311.304231133018	1174.358466338916	499.344949604930	320.355579956139	1150.359722707500	425.003069576205	312.434378442688	1066.683582683364	306.329752824544	262.727091280457	1125.371303182444	197.506027889333	330.815789832393	1057.635129666291	393.137090933578	568.078597227336	933.654522639457	367.627782076435	631.060892524205	908.985976909137	258.407488981439	586.752995882212	704.482849132725	222.570211865861	566.024276167267	860.641932402650	133.906068898210	600.240984820490	752.873550246264	149.709327245465	634.677885310174	905.470782440891	26.823811702495	615.867733821739	1004.553298663755	38.657345646991	372.184150564856	1077.755799201454	36.000218631819	290.679186404966	1160.806500186466	97.655092471063	317.106188350120	1289.560613763336	44.079540203497	287.512152244974	916.193391611849	1089.816546780443	170.254102234990	955.430519915918	831.334881545987	164.591746895623	1157.876935497201	1094.026056266138	696.497490579452	1400.790155672537	1067.422174227432	627.227509661677	
90	45.609857142857	874.704783629256	1004.804277894332	450.767660003009	1025.898168808609	1432.382958820635	255.031208838799	1151.785692056735	1364.060243188912	400.677566596422	1091.355355360560	1438.398289931350	584.226931958969	1048.249973114644	1493.732662163790	408.842269374210	1108.917643358787	938.849172675931	544.589991371984	1073.728422170397	962.513368039957	273.907523999423	1151.429692323900	737.828295481528	533.170065169720	1078.936192460744	629.442686776145	605.599881761549	1161.098474274059	569.427970305731	532.487493642616	1152.263612930079	458.800513407740	556.003158323275	1143.996888289113	762.623581741594	304.087874688670	1066.831494493355	637.921047705087	248.417438315588	1160.518558284214	568.783752292197	309.735446005162	1169.031577567134	498.562742820360	318.982111278850	1144.655598628502	424.379402952580	311.223834089520	1060.247825672210	306.096073460390	261.851080537620	1118.209071647426	197.154843837670	330.369755023366	1068.027518806236	396.148707522279	566.060323883858	943.715459729823	373.341141628861	629.575225381752	916.724537105717	264.539126423330	585.760604438581	713.001118741554	236.841229960221	565.464830047881	864.416727981780	139.260253521850	599.604215421142	757.530077968184	161.391770656456	634.310434893660	902.271214997631	25.934918416992	616.010099810863	996.425840449095	38.674977212137	372.118600539042	1069.610711940326	35.930787525766	290.609744646707	1152.757407505018	97.475091550953	317.043185706744	1281.483242460120	43.680929550967	287.442728931587	923.910839909990	1088.535603981803	165.851341132300	974.624998602382	832.033219948614	156.251752186478	1147.119171074797	1092.399439277677	694.815809533434	1389.290942624758	1048.340735296951	629.421642208565	
91	45.621428571429	873.721244850844	1005.318076537406	447.888424876819	1026.934567066183	1433.006342148690	252.906682634948	1151.663915484097	1364.474669319377	399.491007110071	1089.951653359406	1438.688706255480	582.671152273739	1048.185585546836	1494.338975113060	406.910660335426	1107.727621891645	939.572886139828	542.813258143605	1073.649087340905	963.042259615241	272.011850140302	1155.427855962992	741.295640750462	530.780607567002	1086.695173075160	631.604231617395	603.634161743953	1169.997508555411	573.356195051593	529.752655135140	1163.521088987327	461.830537278317	553.305502349201	1142.293707782888	761.866779004148	302.089145633868	1063.581670319160	638.003246540600	246.753890855226	1156.244506071026	567.980604042490	308.344085576890	1163.885669768290	497.791656299633	317.806387923487	1139.122376647878	423.749368078003	310.168253334122	1053.960606424068	305.905990383002	261.044928069295	1111.103389053847	196.790712780335	329.980711558603	1078.488620910799	399.462619704452	563.689935026054	954.057222702680	378.813343816319	627.790386019074	925.057646871711	270.449412615386	584.322018329587	722.273516191942	249.452081076334	564.391242198757	869.460577481007	144.685062178840	598.703386024805	763.519240185178	172.186410284727	633.625142459150	901.184100180531	25.812943080514	616.233658434925	988.312130785508	38.707720085835	372.032838454174	1061.480652707589	35.880385410831	290.528556170101	1144.722778749364	97.307211259565	316.981530278196	1273.417595979836	43.297962153354	287.365590545531	932.069245045710	1087.269113831138	161.128760097099	994.450052392478	833.368422712165	148.025178033632	1136.612016671889	1090.938670541794	693.287274859764	1376.644560741409	1028.873099939994	631.897956902287	
92	45.633000000000	872.567357691157	1005.769912279878	445.135824629396	1027.897794917301	1433.485919118427	250.904653844404	1151.468365930713	1364.714889952918	398.415789385331	1088.515944419643	1438.864209304917	581.213649022150	1048.185776251955	1494.826211241783	405.084119550084	1106.328225862630	940.272092479377	541.214996920360	1073.489500362242	963.429884033897	270.262065291241	1159.109320367129	744.969671183706	528.100875517746	1094.379433321639	634.055618702900	601.488437428142	1178.491250260514	577.683788014377	526.563796044312	1174.643531613135	465.301999784047	550.213987107382	1140.627128899703	761.160474848260	300.387556801311	1060.439338044071	638.067036103169	245.293602445320	1152.101525206605	567.195652078141	307.142839658345	1158.899657678158	497.026144485222	316.856159512885	1133.736578741498	423.115002857129	309.288484785933	1047.803772097507	305.759677793693	260.330662473158	1104.033893684005	196.417961177409	329.667251332514	1088.991452404975	403.053358196493	561.048246199616	964.574274143960	384.003498471464	625.699304961867	933.985291864507	276.024178399860	582.484287108720	732.120409924932	260.016808896237	562.768899997362	875.916141904038	150.037971773167	597.579751487383	770.832312347575	181.746926389220	632.601079758763	902.685737688793	26.609961193361	616.551170623292	980.208975201979	38.750146379570	371.933476904093	1053.362304233779	35.849009137101	290.441841925787	1136.695078476668	97.158609971299	316.925803202488	1265.358851753544	42.944288558621	287.282358545984	940.659079151215	1086.098995914031	156.094288664871	1014.819615638052	835.447093077602	140.001610660524	1126.431015905914	1089.685333204076	691.917072158576	1362.766662209388	1009.199577787779	634.630139937967	
